<!DOCTYPE svg PUBLIC "-//W3C//DTD SVG 1.1//EN" "http://www.w3.org/Graphics/SVG/1.1/DTD/svg11.dtd">
<!-- Uploaded to: SVG Repo, www.svgrepo.com, Transformed by: SVG Repo Mixer Tools -->
<svg width="800px" height="800px" viewBox="-102.4 -102.4 1228.80 1228.80" xmlns="http://www.w3.org/2000/svg" fill="#000000" stroke="#000000" stroke-width="0.01024">
<g id="SVGRepo_bgCarrier" stroke-width="0" transform="translate(25.600000000000023,25.600000000000023), scale(0.95)">
<rect x="-102.4" y="-102.4" width="1228.80" height="1228.80" rx="614.4" fill="#000000" strokewidth="0"/>
</g>
<g id="SVGRepo_tracerCarrier" stroke-linecap="round" stroke-linejoin="round" stroke="#ffffff" stroke-width="61.44"> <circle cx="512" cy="512" r="512"/> <path d="m665.4 276-192.8 50.2-28.5 49-57.9-.4L245 512l141.1 137.2 57.9-.4 28.6 48.9L665.4 748 717 560.6 687.7 512l29.3-48.5L665.4 276zM448.7 383.1l147.5-36.9-84.7 142.6H342.1l106.6-105.7zm0 257.8L342.1 535.2h169.3l84.7 142.6-147.4-36.9zm188.7 13.7L552.7 512l84.7-142.6L678.3 512l-40.9 142.6z" style="fill:#fff"/> </g>
<g id="SVGRepo_iconCarrier"> <circle cx="512" cy="512" r="512"/> <path d="m665.4 276-192.8 50.2-28.5 49-57.9-.4L245 512l141.1 137.2 57.9-.4 28.6 48.9L665.4 748 717 560.6 687.7 512l29.3-48.5L665.4 276zM448.7 383.1l147.5-36.9-84.7 142.6H342.1l106.6-105.7zm0 257.8L342.1 535.2h169.3l84.7 142.6-147.4-36.9zm188.7 13.7L552.7 512l84.7-142.6L678.3 512l-40.9 142.6z" style="fill:#fff"/> </g>
</svg>